<svg xmlns="http://www.w3.org/2000/svg" version="1.1" xmlns:xlink="http://www.w3.org/1999/xlink" xmlns:svgjs="http://svgjs.dev/svgjs" viewBox="0 0 800 800"><defs><linearGradient x1="50%" y1="0%" x2="50%" y2="100%" id="nnneon-grad"><stop stop-color="hsl(274, 100%, 58%)" stop-opacity="1" offset="0%"></stop><stop stop-color="hsl(212, 72%, 59%)" stop-opacity="1" offset="100%"></stop></linearGradient><filter id="nnneon-filter" x="-100%" y="-100%" width="400%" height="400%" filterUnits="objectBoundingBox" primitiveUnits="userSpaceOnUse" color-interpolation-filters="sRGB">
	<feGaussianBlur stdDeviation="22 18" x="0%" y="0%" width="100%" height="100%" in="SourceGraphic" edgeMode="none" result="blur"></feGaussianBlur></filter><filter id="nnneon-filter2" x="-100%" y="-100%" width="400%" height="400%" filterUnits="objectBoundingBox" primitiveUnits="userSpaceOnUse" color-interpolation-filters="sRGB">
	<feGaussianBlur stdDeviation="10 17" x="0%" y="0%" width="100%" height="100%" in="SourceGraphic" edgeMode="none" result="blur"></feGaussianBlur></filter></defs><g stroke-width="14.5" stroke="url(#nnneon-grad)" fill="none"><path d="M387.49076160983145 219.58299409986108C395.23147832566775 215.11469414689287 404.76852167433225 215.11469414689287 412.50923839016855 219.58424502370008L549.9907719934766 298.95911538083635C557.7314887093129 303.42741533380456 562.5000103836451 311.6872654428329 562.5000103836451 320.6251162726083V479.3748569868808C562.5000103836451 488.31270781665637 557.7314887093129 496.5725579256846 549.9907719934766 501.04210880249184L412.50923839016855 580.416979159628C404.76852167433225 584.8852791125962 395.23147832566775 584.8852791125962 387.49076160983145 580.4157282357892L250.00922800652336 501.0408578786528C242.26851129068712 496.5725579256846 237.49998961635487 488.31270781665637 237.49998961635487 479.3748569868808V320.6251162726083C237.49998961635487 311.6872654428329 242.26851129068712 303.42741533380456 250.00922800652336 298.9578644569974L387.49076160983145 219.58299409986108Z " filter="url(#nnneon-filter)"></path><path d="M399.49076160983145 219.58299409986108C407.23147832566775 215.11469414689287 416.76852167433225 215.11469414689287 424.50923839016855 219.58424502370008L561.9907719934766 298.95911538083635C569.7314887093129 303.42741533380456 574.5000103836451 311.6872654428329 574.5000103836451 320.6251162726083V479.3748569868808C574.5000103836451 488.31270781665637 569.7314887093129 496.5725579256846 561.9907719934766 501.04210880249184L424.50923839016855 580.416979159628C416.76852167433225 584.8852791125962 407.23147832566775 584.8852791125962 399.49076160983145 580.4157282357892L262.00922800652336 501.0408578786528C254.26851129068712 496.5725579256846 249.49998961635487 488.31270781665637 249.49998961635487 479.3748569868808V320.6251162726083C249.49998961635487 311.6872654428329 254.26851129068712 303.42741533380456 262.00922800652336 298.9578644569974L399.49076160983145 219.58299409986108Z " filter="url(#nnneon-filter2)" opacity="0.25"></path><path d="M375.49076160983145 219.58299409986108C383.23147832566775 215.11469414689287 392.76852167433225 215.11469414689287 400.50923839016855 219.58424502370008L537.9907719934766 298.95911538083635C545.7314887093129 303.42741533380456 550.5000103836451 311.6872654428329 550.5000103836451 320.6251162726083V479.3748569868808C550.5000103836451 488.31270781665637 545.7314887093129 496.5725579256846 537.9907719934766 501.04210880249184L400.50923839016855 580.416979159628C392.76852167433225 584.8852791125962 383.23147832566775 584.8852791125962 375.49076160983145 580.4157282357892L238.00922800652336 501.0408578786528C230.26851129068712 496.5725579256846 225.49998961635487 488.31270781665637 225.49998961635487 479.3748569868808V320.6251162726083C225.49998961635487 311.6872654428329 230.26851129068712 303.42741533380456 238.00922800652336 298.9578644569974L375.49076160983145 219.58299409986108Z " filter="url(#nnneon-filter2)" opacity="0.25"></path><path d="M387.49076160983145 219.58299409986108C395.23147832566775 215.11469414689287 404.76852167433225 215.11469414689287 412.50923839016855 219.58424502370008L549.9907719934766 298.95911538083635C557.7314887093129 303.42741533380456 562.5000103836451 311.6872654428329 562.5000103836451 320.6251162726083V479.3748569868808C562.5000103836451 488.31270781665637 557.7314887093129 496.5725579256846 549.9907719934766 501.04210880249184L412.50923839016855 580.416979159628C404.76852167433225 584.8852791125962 395.23147832566775 584.8852791125962 387.49076160983145 580.4157282357892L250.00922800652336 501.0408578786528C242.26851129068712 496.5725579256846 237.49998961635487 488.31270781665637 237.49998961635487 479.3748569868808V320.6251162726083C237.49998961635487 311.6872654428329 242.26851129068712 303.42741533380456 250.00922800652336 298.9578644569974L387.49076160983145 219.58299409986108Z "></path></g></svg>