<svg xmlns="http://www.w3.org/2000/svg" version="1.1" xmlns:xlink="http://www.w3.org/1999/xlink" xmlns:svgjs="http://svgjs.dev/svgjs" viewBox="0 0 2400 800" opacity="1"><defs><linearGradient x1="50%" y1="0%" x2="50%" y2="100%" id="sssurf-grad"><stop stop-color="hsla(212, 72%, 59%, 1.00)" stop-opacity="1" offset="0%"></stop><stop stop-color="hsla(0, 0%, 100%, 1.00)" stop-opacity="1" offset="100%"></stop></linearGradient></defs><g fill="url(#sssurf-grad)" transform="matrix(1,0,0,1,6.8720703125,-158.94373321533203)"><path d="M-10,10C63.51190476190476,10.833333333333334,197.91666666666666,17.333333333333332,342.85714285714283,14C487.79761904761904,10.666666666666668,542.8571428571429,-12.666666666666666,685.7142857142857,-6C828.5714285714284,0.6666666666666661,885.7142857142856,51.416666666666664,1028.5714285714284,46C1171.4285714285713,40.583333333333336,1228.5714285714284,-28.875,1371.4285714285713,-32C1514.2857142857142,-35.125,1571.4285714285713,27.875,1714.2857142857142,31C1857.142857142857,34.125,1914.285714285714,-18.875,2057.142857142857,-17C2199.9999999999995,-15.125,2276.4880952380954,-46.875,2400,40C2523.5119047619046,126.875,3254.1666666666665,220.83333333333331,2650,400C2045.8333333333335,579.1666666666667,156.25,795.8333333333334,-500,900" transform="matrix(1,0,0,1,0,150)" opacity="0.05"></path><path d="M-10,10C63.51190476190476,10.833333333333334,197.91666666666666,17.333333333333332,342.85714285714283,14C487.79761904761904,10.666666666666668,542.8571428571429,-12.666666666666666,685.7142857142857,-6C828.5714285714284,0.6666666666666661,885.7142857142856,51.416666666666664,1028.5714285714284,46C1171.4285714285713,40.583333333333336,1228.5714285714284,-28.875,1371.4285714285713,-32C1514.2857142857142,-35.125,1571.4285714285713,27.875,1714.2857142857142,31C1857.142857142857,34.125,1914.285714285714,-18.875,2057.142857142857,-17C2199.9999999999995,-15.125,2276.4880952380954,-46.875,2400,40C2523.5119047619046,126.875,3254.1666666666665,220.83333333333331,2650,400C2045.8333333333335,579.1666666666667,156.25,795.8333333333334,-500,900" transform="matrix(1,0,0,1,0,300)" opacity="0.24"></path><path d="M-10,10C63.51190476190476,10.833333333333334,197.91666666666666,17.333333333333332,342.85714285714283,14C487.79761904761904,10.666666666666668,542.8571428571429,-12.666666666666666,685.7142857142857,-6C828.5714285714284,0.6666666666666661,885.7142857142856,51.416666666666664,1028.5714285714284,46C1171.4285714285713,40.583333333333336,1228.5714285714284,-28.875,1371.4285714285713,-32C1514.2857142857142,-35.125,1571.4285714285713,27.875,1714.2857142857142,31C1857.142857142857,34.125,1914.285714285714,-18.875,2057.142857142857,-17C2199.9999999999995,-15.125,2276.4880952380954,-46.875,2400,40C2523.5119047619046,126.875,3254.1666666666665,220.83333333333331,2650,400C2045.8333333333335,579.1666666666667,156.25,795.8333333333334,-500,900" transform="matrix(1,0,0,1,0,450)" opacity="0.43"></path><path d="M-10,10C63.51190476190476,10.833333333333334,197.91666666666666,17.333333333333332,342.85714285714283,14C487.79761904761904,10.666666666666668,542.8571428571429,-12.666666666666666,685.7142857142857,-6C828.5714285714284,0.6666666666666661,885.7142857142856,51.416666666666664,1028.5714285714284,46C1171.4285714285713,40.583333333333336,1228.5714285714284,-28.875,1371.4285714285713,-32C1514.2857142857142,-35.125,1571.4285714285713,27.875,1714.2857142857142,31C1857.142857142857,34.125,1914.285714285714,-18.875,2057.142857142857,-17C2199.9999999999995,-15.125,2276.4880952380954,-46.875,2400,40C2523.5119047619046,126.875,3254.1666666666665,220.83333333333331,2650,400C2045.8333333333335,579.1666666666667,156.25,795.8333333333334,-500,900" transform="matrix(1,0,0,1,0,600)" opacity="0.62"></path><path d="M-10,10C63.51190476190476,10.833333333333334,197.91666666666666,17.333333333333332,342.85714285714283,14C487.79761904761904,10.666666666666668,542.8571428571429,-12.666666666666666,685.7142857142857,-6C828.5714285714284,0.6666666666666661,885.7142857142856,51.416666666666664,1028.5714285714284,46C1171.4285714285713,40.583333333333336,1228.5714285714284,-28.875,1371.4285714285713,-32C1514.2857142857142,-35.125,1571.4285714285713,27.875,1714.2857142857142,31C1857.142857142857,34.125,1914.285714285714,-18.875,2057.142857142857,-17C2199.9999999999995,-15.125,2276.4880952380954,-46.875,2400,40C2523.5119047619046,126.875,3254.1666666666665,220.83333333333331,2650,400C2045.8333333333335,579.1666666666667,156.25,795.8333333333334,-500,900" transform="matrix(1,0,0,1,0,750)" opacity="0.81"></path><path d="M-10,10C63.51190476190476,10.833333333333334,197.91666666666666,17.333333333333332,342.85714285714283,14C487.79761904761904,10.666666666666668,542.8571428571429,-12.666666666666666,685.7142857142857,-6C828.5714285714284,0.6666666666666661,885.7142857142856,51.416666666666664,1028.5714285714284,46C1171.4285714285713,40.583333333333336,1228.5714285714284,-28.875,1371.4285714285713,-32C1514.2857142857142,-35.125,1571.4285714285713,27.875,1714.2857142857142,31C1857.142857142857,34.125,1914.285714285714,-18.875,2057.142857142857,-17C2199.9999999999995,-15.125,2276.4880952380954,-46.875,2400,40C2523.5119047619046,126.875,3254.1666666666665,220.83333333333331,2650,400C2045.8333333333335,579.1666666666667,156.25,795.8333333333334,-500,900" transform="matrix(1,0,0,1,0,900)" opacity="1.00"></path></g></svg>